<svg xmlns="http://www.w3.org/2000/svg" width="16" height="16" fill="none" viewBox="0 0 16 16"><path fill="#fff" d="M15.518 2.5a6.02 6.02 0 0 1-.768.28c.31-.35.547-.764.692-1.215a.256.256 0 0 0-.375-.299 6.043 6.043 0 0 1-1.786.706A3.425 3.425 0 0 0 10.895 1a3.412 3.412 0 0 0-3.381 3.849 8.727 8.727 0 0 1-5.99-3.178.256.256 0 0 0-.42.033 3.407 3.407 0 0 0-.461 1.714c0 .821.293 1.6.811 2.21a2.887 2.887 0 0 1-.456-.204.256.256 0 0 0-.38.218v.045c0 1.226.659 2.33 1.668 2.932a2.933 2.933 0 0 1-.26-.038.256.256 0 0 0-.291.33 3.407 3.407 0 0 0 2.497 2.284 6.03 6.03 0 0 1-3.224.92 6.15 6.15 0 0 1-.722-.042.256.256 0 0 0-.168.47A9.192 9.192 0 0 0 5.088 14c3.471 0 5.642-1.636 6.852-3.01 1.509-1.711 2.374-3.977 2.374-6.216 0-.093-.001-.188-.004-.282a6.625 6.625 0 0 0 1.525-1.615.256.256 0 0 0-.317-.377Z"/></svg>